<svg width="156" height="28" viewBox="0 0 156 28" fill="none" xmlns="http://www.w3.org/2000/svg">
<path fill-rule="evenodd" clip-rule="evenodd" d="M62.8377 10.8271C64.6216 11.7387 64.6138 11.7043 63.5169 13.8255C62.5592 15.6782 62.2984 15.7536 60.7897 14.6123C59.2905 13.4782 57.5566 13.5958 55.8382 14.948C53.773 16.5721 53.773 19.9012 55.8382 21.5253C58.8793 23.9178 60.6982 22.9429 64.1866 17.052C65.9177 14.1285 67.6039 12.0411 68.9694 11.1322C74.5214 7.43798 82.1224 11.5123 82.1168 18.18C82.1129 23.0628 78.5657 26.5534 73.6042 26.5573C71.0524 26.5595 67.6927 25.2201 67.6927 24.2008C67.6927 23.8351 68.9112 21.6407 69.7501 20.4966C69.8456 20.3662 70.2334 20.6752 70.6113 21.1829C71.8425 22.8347 74.5247 22.9501 76.2952 21.4276C78.4281 19.5927 78.4536 16.9028 76.3546 15.0972C73.2602 12.435 71.1739 13.5486 67.5401 19.8024C64.5245 24.992 62.2079 26.7531 58.4688 26.6966C53.7447 26.625 49.9373 22.9246 49.9373 18.4042C49.9373 11.5972 56.6399 7.65992 62.8377 10.8271Z" fill="white"/>
<path d="M27.2743 27.2824C24.955 27.2824 23.3559 26.5988 22.477 25.2317C21.6225 23.8645 21.1953 21.9602 21.1953 19.5189V10.1073H25.1503V18.5301C25.1503 19.9217 25.2235 21.0081 25.37 21.7893C25.5409 22.5462 25.8583 23.1077 26.3222 23.4739C26.8104 23.8401 27.5306 24.0232 28.4828 24.0232C29.1664 24.0232 29.8255 23.8279 30.4603 23.4373C31.0951 23.0466 31.6077 22.5217 31.9984 21.8626C32.4134 21.179 32.6209 20.4344 32.6209 19.6287V10.1073H36.5393V26.9162H33.3167L32.8773 24.4626C32.2669 25.4148 31.4979 26.1228 30.5702 26.5866C29.6669 27.0505 28.5682 27.2824 27.2743 27.2824Z" fill="white"/>
<path d="M41.2511 13.33H38.8401V10.1073H41.2511V3.25929L45.2427 3.25928V10.1073L48.2726 10.1073V13.33L45.2427 13.33V26.9162H41.2511V13.33Z" fill="white"/>
<path d="M83.7814 10.1073H87.6632L87.6998 13.1834C88.1636 12.158 88.8961 11.3158 89.897 10.6566C90.898 9.99743 92.0698 9.66785 93.4126 9.66785C95.146 9.66785 96.4765 10.0341 97.4043 10.7665C98.332 11.4745 98.9545 12.4754 99.2719 13.7694C99.5893 15.0633 99.748 16.7478 99.748 18.823V26.9162H95.7929V18.9329C95.7929 16.8089 95.5854 15.283 95.1704 14.3553C94.7554 13.4032 93.9009 12.9271 92.6069 12.9271C91.8745 12.9271 91.1299 13.159 90.3731 13.6229C89.6163 14.0623 88.9815 14.7093 88.4688 15.5638C87.9805 16.4183 87.7364 17.4192 87.7364 18.5667V26.9162H83.7814V10.1073Z" fill="white"/>
<path d="M103.161 0H107.079V26.9162H103.161V0Z" fill="white"/>
<path d="M110.909 10.1073H115.01V26.9162H110.909V10.1073ZM112.923 6.95792C112.166 6.95792 111.532 6.70158 111.019 6.18889C110.506 5.6762 110.25 5.04144 110.25 4.28461C110.25 3.60103 110.506 3.0151 111.019 2.52682C111.532 2.03855 112.166 1.79441 112.923 1.79441C113.656 1.79441 114.278 2.03855 114.791 2.52682C115.303 3.0151 115.56 3.60103 115.56 4.28461C115.56 5.04144 115.303 5.6762 114.791 6.18889C114.302 6.70158 113.68 6.95792 112.923 6.95792Z" fill="white"/>
<path d="M118.472 10.1073H122.354L122.391 13.1834C122.855 12.158 123.587 11.3158 124.588 10.6566C125.589 9.99743 126.761 9.66785 128.104 9.66785C129.837 9.66785 131.167 10.0341 132.095 10.7665C133.023 11.4745 133.645 12.4754 133.963 13.7694C134.28 15.0633 134.439 16.7478 134.439 18.823V26.9162H130.484V18.9329C130.484 16.8089 130.276 15.283 129.861 14.3553C129.446 13.4032 128.592 12.9271 127.298 12.9271C126.565 12.9271 125.821 13.159 125.064 13.6229C124.307 14.0623 123.672 14.7093 123.16 15.5638C122.671 16.4183 122.427 17.4192 122.427 18.5667V26.9162H118.472V10.1073Z" fill="white"/>
<path d="M14.3753 10.1076V11.943C16.1107 13.5165 17.2006 15.7891 17.2006 18.3161C17.2006 20.8254 16.126 23.0836 14.4119 24.6558V26.9164H18.1472V10.1076H14.3753Z" fill="white"/>
<path fill-rule="evenodd" clip-rule="evenodd" d="M14.4119 24.6558C16.126 23.0836 17.2006 20.8254 17.2006 18.3161C17.2006 15.7891 16.1107 13.5165 14.3753 11.943C14.2759 11.8529 14.1744 11.7651 14.0709 11.6797C12.5842 10.4528 10.6783 9.71582 8.6003 9.71582C3.85048 9.71582 -7.62939e-06 13.5663 -7.62939e-06 18.3161C-7.62939e-06 23.0659 3.85048 26.9164 8.6003 26.9164C10.8409 26.9164 12.8813 26.0596 14.4119 24.6558ZM8.6003 23.0324C11.205 23.0324 13.3166 20.9209 13.3166 18.3161C13.3166 15.7114 11.205 13.5998 8.6003 13.5998C5.99556 13.5998 3.884 15.7114 3.884 18.3161C3.884 20.9209 5.99556 23.0324 8.6003 23.0324Z" fill="white"/>
<path d="M146.205 27.471C141.149 27.471 137.05 23.3721 137.05 18.3158C137.05 13.2596 141.149 9.16064 146.205 9.16064C151.261 9.16064 155.36 13.2596 155.36 18.3158C155.36 18.9822 155.289 19.6319 155.154 20.2578H151.107C151.345 19.6568 151.476 19.0016 151.476 18.3158C151.476 17.8357 151.412 17.3706 151.292 16.9287C150.683 14.6905 148.636 13.0447 146.205 13.0447C143.774 13.0447 141.727 14.6905 141.118 16.9287C140.998 17.3706 140.934 17.8357 140.934 18.3158C140.934 19.0016 141.065 19.6568 141.303 20.2578C142.076 22.2079 143.98 23.587 146.205 23.587C147.721 23.587 149.088 22.947 150.049 21.9224H154.622C153.222 25.1854 149.981 27.471 146.205 27.471Z" fill="white"/>
<path d="M151.107 20.2578C151.345 19.6568 151.476 19.0016 151.476 18.3158C151.476 17.8357 151.412 17.3706 151.292 16.9287H141.118C140.998 17.3706 140.934 17.8357 140.934 18.3158C140.934 19.0016 141.065 19.6568 141.303 20.2578H151.107Z" fill="white"/>
</svg>
